<svg xmlns="http://www.w3.org/2000/svg" width="400" height="400" viewBox="0 0 400 400">
  <defs>
    <pattern id="grid" width="80" height="80" patternUnits="userSpaceOnUse">
      <path d="M0 40h80 M40 0v80" fill="none" stroke="rgba(34,197,94,0.4)" stroke-width="1.2"/>
    </pattern>
    <pattern id="circuit" width="400" height="400" patternUnits="userSpaceOnUse">
      <rect width="400" height="400" fill="url(#grid)"/>
      <g stroke="rgba(34,197,94,0.55)" stroke-width="2.2" fill="none" stroke-linecap="round">
        <path d="M40 80 H120 V160 H200 V80 H280 V40"/>
        <path d="M80 200 H200 V280 H320 V320"/>
        <path d="M0 120 H80 M160 0 V80 M240 160 V240"/>
        <path d="M120 240 H280 V200 H360"/>
        <path d="M40 280 H120 M200 320 H280"/>
        <path d="M320 80 V160 H400"/>
        <path d="M0 280 H40 M80 40 V80 M360 200 H400"/>
        <path d="M60 60 L140 60 L140 140 L220 140 M260 60 L340 60"/>
        <path d="M100 220 L180 220 L180 300 M260 260 L340 260"/>
      </g>
      <g fill="rgba(34,197,94,0.65)">
        <circle cx="40" cy="80" r="3"/><circle cx="120" cy="80" r="3"/><circle cx="120" cy="160" r="3"/>
        <circle cx="200" cy="160" r="3"/><circle cx="200" cy="80" r="3"/><circle cx="280" cy="80" r="3"/><circle cx="280" cy="40" r="3"/>
        <circle cx="80" cy="200" r="3"/><circle cx="200" cy="200" r="3"/><circle cx="200" cy="280" r="3"/><circle cx="320" cy="280" r="3"/><circle cx="320" cy="320" r="3"/>
        <circle cx="80" cy="120" r="3"/><circle cx="160" cy="40" r="3"/><circle cx="240" cy="200" r="3"/>
        <circle cx="120" cy="240" r="3"/><circle cx="280" cy="240" r="3"/><circle cx="280" cy="200" r="3"/><circle cx="360" cy="200" r="3"/>
        <circle cx="40" cy="280" r="3"/><circle cx="120" cy="280" r="3"/><circle cx="200" cy="320" r="3"/><circle cx="280" cy="320" r="3"/>
        <circle cx="320" cy="80" r="3"/><circle cx="320" cy="160" r="3"/>
        <circle cx="60" cy="60" r="3"/><circle cx="140" cy="60" r="3"/><circle cx="140" cy="140" r="3"/><circle cx="220" cy="140" r="3"/><circle cx="260" cy="60" r="3"/><circle cx="340" cy="60" r="3"/>
        <circle cx="100" cy="220" r="3"/><circle cx="180" cy="220" r="3"/><circle cx="180" cy="300" r="3"/><circle cx="260" cy="260" r="3"/><circle cx="340" cy="260" r="3"/>
      </g>
    </pattern>
  </defs>
  <rect width="400" height="400" fill="url(#circuit)"/>
</svg>
